<mxfile host="Electron" modified="2023-05-23T23:40:50.436Z" agent="Mozilla/5.0 (Windows NT 10.0; Win64; x64) AppleWebKit/537.36 (KHTML, like Gecko) draw.io/21.2.8 Chrome/112.0.5615.165 Electron/24.2.0 Safari/537.36" etag="Cy9COnDv8CA3AMmRfjgh" version="21.2.8" type="device" pages="2">
  <diagram name="Class Diagram" id="6y82QvWqDyoeqdexZ-E8">
    <mxGraphModel dx="1162" dy="1407" grid="0" gridSize="10" guides="1" tooltips="1" connect="1" arrows="1" fold="1" page="0" pageScale="1" pageWidth="850" pageHeight="1100" background="#B3B3B3" math="0" shadow="0">
      <root>
        <mxCell id="0" />
        <mxCell id="1" parent="0" />
        <mxCell id="tM5TyMosLTcsv8V2hco5-1" value="TestScene" style="swimlane;fontStyle=1;align=center;verticalAlign=top;childLayout=stackLayout;horizontal=1;startSize=33;horizontalStack=0;resizeParent=1;resizeParentMax=0;resizeLast=0;collapsible=1;marginBottom=0;whiteSpace=wrap;html=1;fontSize=16;fillColor=#f5f5f5;fontColor=#333333;strokeColor=#666666;swimlaneFillColor=default;" parent="1" vertex="1">
          <mxGeometry x="454" y="-36" width="211" height="93" as="geometry" />
        </mxCell>
        <mxCell id="tM5TyMosLTcsv8V2hco5-2" value="~ signal on_test_exit()" style="text;strokeColor=none;fillColor=none;align=left;verticalAlign=top;spacingLeft=4;spacingRight=4;overflow=hidden;rotatable=0;points=[[0,0.5],[1,0.5]];portConstraint=eastwest;whiteSpace=wrap;html=1;fontSize=16;" parent="tM5TyMosLTcsv8V2hco5-1" vertex="1">
          <mxGeometry y="33" width="211" height="26" as="geometry" />
        </mxCell>
        <mxCell id="tM5TyMosLTcsv8V2hco5-3" value="" style="line;strokeWidth=1;fillColor=none;align=left;verticalAlign=middle;spacingTop=-1;spacingLeft=3;spacingRight=3;rotatable=0;labelPosition=right;points=[];portConstraint=eastwest;strokeColor=inherit;fontSize=16;" parent="tM5TyMosLTcsv8V2hco5-1" vertex="1">
          <mxGeometry y="59" width="211" height="8" as="geometry" />
        </mxCell>
        <mxCell id="tM5TyMosLTcsv8V2hco5-4" value="+ exit_test()" style="text;strokeColor=none;fillColor=none;align=left;verticalAlign=top;spacingLeft=4;spacingRight=4;overflow=hidden;rotatable=0;points=[[0,0.5],[1,0.5]];portConstraint=eastwest;whiteSpace=wrap;html=1;fontSize=16;" parent="tM5TyMosLTcsv8V2hco5-1" vertex="1">
          <mxGeometry y="67" width="211" height="26" as="geometry" />
        </mxCell>
        <mxCell id="tM5TyMosLTcsv8V2hco5-13" value="" style="edgeStyle=none;curved=1;rounded=0;orthogonalLoop=1;jettySize=auto;html=1;fontSize=12;startSize=8;endSize=8;" parent="1" source="tM5TyMosLTcsv8V2hco5-14" target="tM5TyMosLTcsv8V2hco5-4" edge="1">
          <mxGeometry relative="1" as="geometry">
            <mxPoint x="512.891304347826" y="157" as="sourcePoint" />
          </mxGeometry>
        </mxCell>
        <mxCell id="tM5TyMosLTcsv8V2hco5-14" value="Lets the TestRunner know that the test is finished via the `on_test_exit` signal." style="whiteSpace=wrap;html=1;fontSize=14;fillColor=#FFF599;strokeColor=#d6b656;spacingLeft=10;spacingBottom=10;spacingRight=10;spacingTop=10;fontColor=#331A00;" parent="1" vertex="1">
          <mxGeometry x="726" y="110" width="174" height="106" as="geometry" />
        </mxCell>
      </root>
    </mxGraphModel>
  </diagram>
  <diagram id="hkPfzNNbUrFvuuMmF8mX" name="Sequence: Run All">
    <mxGraphModel dx="1962" dy="1407" grid="0" gridSize="10" guides="1" tooltips="1" connect="1" arrows="1" fold="1" page="0" pageScale="1" pageWidth="850" pageHeight="1100" background="#B3B3B3" math="0" shadow="0">
      <root>
        <mxCell id="0" />
        <mxCell id="1" parent="0" />
        <mxCell id="KkMCgTxBBTBBrHVNEJOE-18" value="loop" style="shape=umlFrame;whiteSpace=wrap;html=1;pointerEvents=0;fontSize=16;labelBackgroundColor=none;swimlaneFillColor=default;" parent="1" vertex="1">
          <mxGeometry x="-37" y="161" width="522" height="608" as="geometry" />
        </mxCell>
        <mxCell id="KkMCgTxBBTBBrHVNEJOE-19" value="alt" style="shape=umlFrame;whiteSpace=wrap;html=1;pointerEvents=0;fontSize=16;swimlaneFillColor=#E6E6E6;" parent="1" vertex="1">
          <mxGeometry x="-26" y="204" width="487" height="533" as="geometry" />
        </mxCell>
        <mxCell id="02iZ_VtH3Efv8Gho3ET1-1" value="User" style="shape=umlLifeline;perimeter=lifelinePerimeter;whiteSpace=wrap;html=1;container=1;dropTarget=0;collapsible=0;recursiveResize=0;outlineConnect=0;portConstraint=eastwest;newEdgeStyle={&quot;edgeStyle&quot;:&quot;elbowEdgeStyle&quot;,&quot;elbow&quot;:&quot;vertical&quot;,&quot;curved&quot;:0,&quot;rounded&quot;:0};participant=umlActor;fontSize=16;spacingTop=-70;" parent="1" vertex="1">
          <mxGeometry x="-280" y="-296" width="20" height="1330" as="geometry" />
        </mxCell>
        <mxCell id="02iZ_VtH3Efv8Gho3ET1-2" value="Dock" style="shape=umlLifeline;perimeter=lifelinePerimeter;whiteSpace=wrap;html=1;container=1;dropTarget=0;collapsible=0;recursiveResize=0;outlineConnect=0;portConstraint=eastwest;newEdgeStyle={&quot;edgeStyle&quot;:&quot;elbowEdgeStyle&quot;,&quot;elbow&quot;:&quot;vertical&quot;,&quot;curved&quot;:0,&quot;rounded&quot;:0};fontSize=16;" parent="1" vertex="1">
          <mxGeometry x="-167" y="-296" width="100" height="1335" as="geometry" />
        </mxCell>
        <mxCell id="02iZ_VtH3Efv8Gho3ET1-3" value="Test Runner Instance" style="shape=umlLifeline;perimeter=lifelinePerimeter;whiteSpace=wrap;html=1;container=1;dropTarget=0;collapsible=0;recursiveResize=0;outlineConnect=0;portConstraint=eastwest;newEdgeStyle={&quot;edgeStyle&quot;:&quot;elbowEdgeStyle&quot;,&quot;elbow&quot;:&quot;vertical&quot;,&quot;curved&quot;:0,&quot;rounded&quot;:0};fontSize=14;size=77;" parent="1" vertex="1">
          <mxGeometry x="-7" y="-117" width="122" height="1157" as="geometry" />
        </mxCell>
        <mxCell id="KkMCgTxBBTBBrHVNEJOE-15" value="" style="html=1;points=[];perimeter=orthogonalPerimeter;outlineConnect=0;targetShapes=umlLifeline;portConstraint=eastwest;newEdgeStyle={&quot;edgeStyle&quot;:&quot;elbowEdgeStyle&quot;,&quot;elbow&quot;:&quot;vertical&quot;,&quot;curved&quot;:0,&quot;rounded&quot;:0};fontSize=16;" parent="02iZ_VtH3Efv8Gho3ET1-3" vertex="1">
          <mxGeometry x="56" y="184" width="10" height="952" as="geometry" />
        </mxCell>
        <mxCell id="KkMCgTxBBTBBrHVNEJOE-16" value="run all UnitTests and&lt;br style=&quot;font-size: 12px;&quot;&gt;UnitTestScenes in order" style="html=1;align=left;spacingLeft=2;endArrow=block;rounded=0;edgeStyle=orthogonalEdgeStyle;curved=0;rounded=0;fontSize=12;startSize=8;endSize=8;dashed=1;" parent="02iZ_VtH3Efv8Gho3ET1-3" source="KkMCgTxBBTBBrHVNEJOE-15" target="KkMCgTxBBTBBrHVNEJOE-15" edge="1">
          <mxGeometry x="0.7815" y="-22" relative="1" as="geometry">
            <mxPoint x="116" y="214" as="sourcePoint" />
            <Array as="points">
              <mxPoint x="133" y="205" />
              <mxPoint x="133" y="251" />
            </Array>
            <mxPoint as="offset" />
          </mxGeometry>
        </mxCell>
        <mxCell id="KkMCgTxBBTBBrHVNEJOE-23" value="instantiate and call all unit test &lt;br style=&quot;font-size: 12px;&quot;&gt;methods in UnitTest script" style="html=1;align=left;spacingLeft=2;endArrow=block;rounded=0;edgeStyle=orthogonalEdgeStyle;curved=0;rounded=0;fontSize=12;startSize=8;endSize=8;" parent="02iZ_VtH3Efv8Gho3ET1-3" source="KkMCgTxBBTBBrHVNEJOE-15" target="KkMCgTxBBTBBrHVNEJOE-15" edge="1">
          <mxGeometry x="0.7819" y="-25" relative="1" as="geometry">
            <mxPoint x="66" y="349" as="sourcePoint" />
            <Array as="points">
              <mxPoint x="150" y="349" />
              <mxPoint x="150" y="401" />
            </Array>
            <mxPoint x="66" y="432.0344827586207" as="targetPoint" />
            <mxPoint as="offset" />
          </mxGeometry>
        </mxCell>
        <mxCell id="02iZ_VtH3Efv8Gho3ET1-4" value="TestScene Instance" style="shape=umlLifeline;perimeter=lifelinePerimeter;whiteSpace=wrap;html=1;container=1;dropTarget=0;collapsible=0;recursiveResize=0;outlineConnect=0;portConstraint=eastwest;newEdgeStyle={&quot;edgeStyle&quot;:&quot;elbowEdgeStyle&quot;,&quot;elbow&quot;:&quot;vertical&quot;,&quot;curved&quot;:0,&quot;rounded&quot;:0};fontSize=14;size=78;" parent="1" vertex="1">
          <mxGeometry x="157" y="387" width="115" height="801" as="geometry" />
        </mxCell>
        <mxCell id="KkMCgTxBBTBBrHVNEJOE-28" value="" style="html=1;points=[];perimeter=orthogonalPerimeter;outlineConnect=0;targetShapes=umlLifeline;portConstraint=eastwest;newEdgeStyle={&quot;edgeStyle&quot;:&quot;elbowEdgeStyle&quot;,&quot;elbow&quot;:&quot;vertical&quot;,&quot;curved&quot;:0,&quot;rounded&quot;:0};fontSize=16;" parent="02iZ_VtH3Efv8Gho3ET1-4" vertex="1">
          <mxGeometry x="53" y="104" width="10" height="176" as="geometry" />
        </mxCell>
        <mxCell id="KkMCgTxBBTBBrHVNEJOE-3" value="play test runner via &lt;br&gt;plugin&#39;s EditorInterface" style="html=1;verticalAlign=bottom;endArrow=block;edgeStyle=elbowEdgeStyle;elbow=vertical;curved=0;rounded=0;fontSize=12;startSize=8;endSize=8;entryX=0.497;entryY=-0.002;entryDx=0;entryDy=0;entryPerimeter=0;" parent="1" source="KkMCgTxBBTBBrHVNEJOE-4" target="02iZ_VtH3Efv8Gho3ET1-3" edge="1">
          <mxGeometry x="0.0966" y="6" width="80" relative="1" as="geometry">
            <mxPoint x="-82" y="-190" as="sourcePoint" />
            <mxPoint x="-2" y="-190" as="targetPoint" />
            <Array as="points">
              <mxPoint x="54" y="-178" />
            </Array>
            <mxPoint as="offset" />
          </mxGeometry>
        </mxCell>
        <mxCell id="KkMCgTxBBTBBrHVNEJOE-4" value="" style="html=1;points=[];perimeter=orthogonalPerimeter;outlineConnect=0;targetShapes=umlLifeline;portConstraint=eastwest;newEdgeStyle={&quot;edgeStyle&quot;:&quot;elbowEdgeStyle&quot;,&quot;elbow&quot;:&quot;vertical&quot;,&quot;curved&quot;:0,&quot;rounded&quot;:0};fontSize=16;" parent="1" vertex="1">
          <mxGeometry x="-122" y="-212" width="10" height="1232" as="geometry" />
        </mxCell>
        <mxCell id="KkMCgTxBBTBBrHVNEJOE-7" value="minimize play &lt;br&gt;window" style="html=1;verticalAlign=bottom;endArrow=block;edgeStyle=elbowEdgeStyle;elbow=vertical;curved=0;rounded=0;fontSize=12;startSize=8;endSize=8;" parent="1" source="KkMCgTxBBTBBrHVNEJOE-4" target="02iZ_VtH3Efv8Gho3ET1-3" edge="1">
          <mxGeometry x="-0.0211" y="4" width="80" relative="1" as="geometry">
            <mxPoint x="-75" y="1" as="sourcePoint" />
            <mxPoint x="49" y="18" as="targetPoint" />
            <Array as="points">
              <mxPoint x="-44" y="18" />
            </Array>
            <mxPoint as="offset" />
          </mxGeometry>
        </mxCell>
        <mxCell id="KkMCgTxBBTBBrHVNEJOE-13" value="ready" style="html=1;verticalAlign=bottom;startArrow=circle;startFill=1;endArrow=open;startSize=3;endSize=8;edgeStyle=elbowEdgeStyle;elbow=vertical;curved=0;rounded=0;fontSize=12;" parent="1" target="KkMCgTxBBTBBrHVNEJOE-15" edge="1">
          <mxGeometry x="0.0596" y="1" width="80" relative="1" as="geometry">
            <mxPoint x="-36" y="73" as="sourcePoint" />
            <mxPoint x="49" y="73" as="targetPoint" />
            <mxPoint as="offset" />
          </mxGeometry>
        </mxCell>
        <mxCell id="KkMCgTxBBTBBrHVNEJOE-14" value="exit_test signal" style="html=1;verticalAlign=bottom;startArrow=none;startFill=0;endArrow=block;startSize=8;edgeStyle=elbowEdgeStyle;elbow=vertical;curved=0;rounded=0;fontSize=12;" parent="1" source="KkMCgTxBBTBBrHVNEJOE-15" target="KkMCgTxBBTBBrHVNEJOE-4" edge="1">
          <mxGeometry x="0.0062" y="-26" width="60" relative="1" as="geometry">
            <mxPoint x="49" y="140" as="sourcePoint" />
            <mxPoint x="31" y="137" as="targetPoint" />
            <Array as="points">
              <mxPoint x="-22" y="997" />
            </Array>
            <mxPoint as="offset" />
          </mxGeometry>
        </mxCell>
        <mxCell id="KkMCgTxBBTBBrHVNEJOE-20" value="" style="line;strokeWidth=1;fillColor=none;align=left;verticalAlign=middle;spacingTop=-1;spacingLeft=3;spacingRight=3;rotatable=0;labelPosition=right;points=[];portConstraint=eastwest;strokeColor=inherit;fontSize=16;" parent="1" vertex="1">
          <mxGeometry x="-25" y="306" width="486" height="8" as="geometry" />
        </mxCell>
        <mxCell id="KkMCgTxBBTBBrHVNEJOE-21" value="{if UnitTest}" style="text;strokeColor=none;align=right;fillColor=none;html=1;verticalAlign=top;whiteSpace=wrap;rounded=0;fontSize=12;spacingRight=10;" parent="1" vertex="1">
          <mxGeometry x="365" y="204" width="96" height="30" as="geometry" />
        </mxCell>
        <mxCell id="KkMCgTxBBTBBrHVNEJOE-22" value="{if UnitTestScene}" style="text;strokeColor=none;align=right;fillColor=none;html=1;verticalAlign=top;whiteSpace=wrap;rounded=0;fontSize=12;spacingRight=10;" parent="1" vertex="1">
          <mxGeometry x="326" y="310" width="135" height="30" as="geometry" />
        </mxCell>
        <mxCell id="KkMCgTxBBTBBrHVNEJOE-24" value="instatiate UnitTestScene&lt;br&gt;and add to tree" style="html=1;verticalAlign=bottom;endArrow=block;edgeStyle=elbowEdgeStyle;elbow=vertical;curved=0;rounded=0;fontSize=12;startSize=8;endSize=8;entryX=0.476;entryY=-0.001;entryDx=0;entryDy=0;entryPerimeter=0;" parent="1" source="KkMCgTxBBTBBrHVNEJOE-15" target="02iZ_VtH3Efv8Gho3ET1-4" edge="1">
          <mxGeometry x="-0.0296" y="4" width="80" relative="1" as="geometry">
            <mxPoint x="59" y="365" as="sourcePoint" />
            <mxPoint x="164" y="361" as="targetPoint" />
            <Array as="points">
              <mxPoint x="190" y="365" />
            </Array>
            <mxPoint as="offset" />
          </mxGeometry>
        </mxCell>
        <mxCell id="KkMCgTxBBTBBrHVNEJOE-25" value="run all tests" style="html=1;verticalAlign=bottom;startArrow=oval;startFill=1;endArrow=block;startSize=8;edgeStyle=elbowEdgeStyle;elbow=vertical;curved=0;rounded=0;fontSize=12;" parent="1" source="02iZ_VtH3Efv8Gho3ET1-1" target="KkMCgTxBBTBBrHVNEJOE-4" edge="1">
          <mxGeometry width="60" relative="1" as="geometry">
            <mxPoint x="-241" y="-207" as="sourcePoint" />
            <mxPoint x="-181" y="-207" as="targetPoint" />
            <Array as="points">
              <mxPoint x="-182" y="-197" />
            </Array>
          </mxGeometry>
        </mxCell>
        <mxCell id="KkMCgTxBBTBBrHVNEJOE-27" value="ready" style="html=1;verticalAlign=bottom;startArrow=oval;startFill=1;endArrow=block;startSize=8;edgeStyle=elbowEdgeStyle;elbow=vertical;curved=0;rounded=0;fontSize=12;" parent="1" edge="1">
          <mxGeometry width="60" relative="1" as="geometry">
            <mxPoint x="123" y="507.24" as="sourcePoint" />
            <mxPoint x="210" y="507.1379310344828" as="targetPoint" />
          </mxGeometry>
        </mxCell>
        <mxCell id="KkMCgTxBBTBBrHVNEJOE-30" style="edgeStyle=none;curved=1;rounded=0;orthogonalLoop=1;jettySize=auto;html=1;fontSize=12;startSize=8;endSize=8;endArrow=diamond;endFill=1;" parent="1" source="KkMCgTxBBTBBrHVNEJOE-29" target="KkMCgTxBBTBBrHVNEJOE-28" edge="1">
          <mxGeometry relative="1" as="geometry" />
        </mxCell>
        <mxCell id="KkMCgTxBBTBBrHVNEJOE-29" value="User code runs and uses `Testing` autoload methods. (This is how the plugin detects error and determines if the UnitTestScene ran successfully)" style="whiteSpace=wrap;html=1;fontSize=14;spacingLeft=10;spacingBottom=10;spacingRight=10;spacingTop=10;fillColor=#f8cecc;strokeColor=#b85450;" parent="1" vertex="1">
          <mxGeometry x="260" y="498" width="192" height="144" as="geometry" />
        </mxCell>
      </root>
    </mxGraphModel>
  </diagram>
</mxfile>
